<?xml version="1.0" standalone="no"?>
<!DOCTYPE svg PUBLIC "-//W3C//DTD SVG 1.1//EN" "http://www.w3.org/Graphics/SVG/1.1/DTD/svg11.dtd" >
<svg xmlns="http://www.w3.org/2000/svg">
<metadata>Generated by IcoMoon</metadata>
<defs>
<font id="ff-icons" horiz-adv-x="1024">
<font-face units-per-em="1024" ascent="960" descent="-64" />
<missing-glyph horiz-adv-x="1024" />
<glyph unicode="&#x20;" horiz-adv-x="512" d="" />
<glyph unicode="&#xe900;" glyph-name="logo" horiz-adv-x="1390" d="M372.995 693.575c-9.267 9.267-9.267 23.167 0 32.434l229.357 229.357c9.267 9.267 23.167 9.267 32.434 0l20.851-20.851c9.267-9.267 9.267-23.167 0-32.434l-229.357-229.357c-9.267-9.267-23.167-9.267-32.434 0l-20.851 20.851zM266.425 589.321c-9.267 9.267-23.167 9.267-32.434 0l-229.357-229.357c-9.267-9.267-9.267-23.167 0-32.434l20.851-20.851c9.267-9.267 23.167-9.267 32.434 0l229.357 229.357c9.267 9.267 9.267 23.167 0 32.434l-20.851 20.851zM757.575 306.679c9.267-9.267 23.167-9.267 32.434 0l229.357 229.357c9.267 9.267 9.267 23.167 0 32.434l-23.167 20.851c-9.267 9.267-23.167 9.267-32.434 0l-229.357-229.357c-9.267-9.267-9.267-23.167 0-32.434l23.167-20.851zM632.471 223.276c-9.267 9.267-23.167 9.267-32.434 0l-229.357-229.357c-9.267-9.267-9.267-23.167 0-32.434l20.851-20.851c9.267-9.267 23.167-9.267 32.434 0l229.357 229.357c9.267 9.267 9.267 23.167 0 32.434l-20.851 20.851zM423.964 589.321c-9.267 9.267-23.167 9.267-32.434 0l-20.851-20.851c-9.267-9.267-9.267-23.167 0-32.434l229.357-229.357c9.267-9.267 23.167-9.267 32.434 0l20.851 20.851c9.267 9.267 9.267 23.167 0 32.434l-229.357 229.357zM787.692 953.050c-9.267 9.267-23.167 9.267-32.434 0l-20.851-20.851c-9.267-9.267-9.267-23.167 0-32.434l229.357-229.357c9.267-9.267 23.167-9.267 32.434 0l20.851 20.851c9.267 9.267 9.267 23.167 0 32.434l-229.357 229.357zM787.692 223.276c-9.267 9.267-23.167 9.267-32.434 0l-20.851-20.851c-9.267-9.267-9.267-23.167 0-32.434l229.357-229.357c9.267-9.267 23.167-9.267 32.434 0l20.851 20.851c9.267 9.267 9.267 23.167 0 32.434l-229.357 229.357zM1153.738 589.321c-9.267 9.267-23.167 9.267-32.434 0l-20.851-20.851c-9.267-9.267-9.267-23.167 0-32.434l229.357-229.357c9.267-9.267 23.167-9.267 32.434 0l20.851 20.851c9.267 9.267 9.267 23.167 0 32.434l-229.357 229.357z" />
<glyph unicode="&#xe901;" glyph-name="arrow-down" horiz-adv-x="448" d="M448 239.304l-224.278-223.722-223.722 224.278 224.278 223.722 223.722-224.278zM223.722 78.47l161.391 160.835-160.835 161.391-161.391-160.835 160.835-161.391zM201.377-64.060l1.059 1024 44.522-0.046-1.059-1024-44.522 0.046z" />
<glyph unicode="&#xe902;" glyph-name="arrow-up" horiz-adv-x="448" d="M448 656.696l-224.278 223.722-223.722-224.278 224.278-223.722 223.722 224.278zM223.722 817.53l161.391-160.835-160.835-161.391-161.391 160.835 160.835 161.391zM201.377 960.060l1.059-1024 44.522 0.046-1.059 1024-44.522-0.046z" />
<glyph unicode="&#xe903;" glyph-name="arrow-left-long" horiz-adv-x="6666" d="M694.539-64l-512.636 511.364 512.636 512.636 512.636-512.636-512.636-511.364zM326.917 447.364l367.622-367.622 367.622 367.622-367.622 368.894-367.622-368.894zM0 498.246h6665.54v-101.764h-6665.54v101.764z" />
<glyph unicode="&#xe904;" glyph-name="arrow-right-long" horiz-adv-x="6666" d="M5971.461-64l512.636 511.364-512.636 512.636-512.636-512.636 512.636-511.364zM6339.083 447.364l-367.622-367.622-367.622 367.622 367.622 368.894 367.622-368.894zM6666 498.246h-6665.54v-101.764h6665.54v101.764z" />
<glyph unicode="&#xe905;" glyph-name="arrow-left" horiz-adv-x="3215" d="M742.681-64l-512.804 512.804 512.804 511.196 511.196-511.196-511.196-512.804zM413.137 448.804l329.545-329.545 329.545 329.545-329.545 329.545-329.545-329.545zM0 513.105h3215.071v-128.603h-3215.071v128.603z" />
<glyph unicode="&#xe906;" glyph-name="arrow-right" horiz-adv-x="3215" d="M2472.319 960l512.804-512.804-512.804-511.196-511.196 511.196 511.196 512.804zM2801.863 447.196l-329.545 329.545-329.545-329.545 329.545-329.545 329.545 329.545zM3215 382.895h-3215.071v128.603h3215.071v-128.603z" />
<glyph unicode="&#xe907;" glyph-name="circle-glyph-1" d="M405.333 311.467l93.867 89.6v-183.467zM524.8 401.067l93.867-89.6-93.867-93.867zM512 913.067c-256 0-465.067-209.067-465.067-465.067s209.067-465.067 465.067-465.067c256 0 465.067 209.067 465.067 465.067s-209.067 465.067-465.067 465.067zM524.8 179.2v-68.267h-29.867v68.267l-132.267 132.267 132.267 132.267v341.333h29.867v-341.333l132.267-132.267-132.267-132.267z" />
<glyph unicode="&#xe908;" glyph-name="circle-glyph-2" d="M512 917.333c-260.267 0-469.333-209.067-469.333-469.333s209.067-469.333 469.333-469.333c260.267 0 469.333 209.067 469.333 469.333s-209.067 469.333-469.333 469.333zM512 89.6c-196.267 0-358.4 162.133-358.4 358.4s162.133 358.4 358.4 358.4 358.4-162.133 358.4-358.4-162.133-358.4-358.4-358.4zM512 772.267c-179.2 0-324.267-145.067-324.267-324.267s145.067-324.267 324.267-324.267c179.2 0 324.267 145.067 324.267 324.267s-145.067 324.267-324.267 324.267zM529.067 439.467v-81.067h-34.133v332.8h34.133v-209.067l136.533 76.8 17.067-29.867-153.6-89.6z" />
<glyph unicode="&#xe909;" glyph-name="cross" d="M176.679 821.327l268.509-268.509-36.204-36.204-268.509 268.509 36.204 36.204zM580.383 345.007l36.204 36.204 268.509-268.509-36.204-36.204-268.509 268.509zM850.096 822.137l36.204-36.204-712.003-712.003-36.204 36.204 712.003 712.003z" />
<glyph unicode="&#xe90a;" glyph-name="diamond" d="M512 55.467l-392.533 392.533 392.533 392.533 392.533-392.533-392.533-392.533zM230.4 448l281.6-281.6 281.6 281.6-281.6 281.6-281.6-281.6z" />
<glyph unicode="&#xe90b;" glyph-name="search" d="M695.467 324.267c46.933 59.733 68.267 128 68.267 204.8 0 89.6-34.133 170.667-98.133 234.667s-145.067 98.133-234.667 98.133c-89.6 0-170.667-34.133-234.667-98.133s-98.133-145.067-98.133-234.667c0-89.6 34.133-170.667 98.133-234.667s145.067-98.133 234.667-98.133c72.533 0 145.067 25.6 204.8 68.267l226.133-226.133 55.467 55.467-221.867 230.4zM256 349.867c-46.933 46.933-72.533 110.933-72.533 174.933 0 68.267 25.6 128 72.533 174.933s110.933 72.533 174.933 72.533c34.133 0 64-8.533 93.867-17.067 29.867-12.8 55.467-29.867 81.067-55.467 46.933-46.933 72.533-110.933 72.533-174.933 0-68.267-25.6-128-72.533-174.933s-110.933-72.533-174.933-72.533c-64 0-128 25.6-174.933 72.533z" />
<glyph unicode="&#xe90c;" glyph-name="social-facebook" d="M716.8 708.267h-72.533c-59.733 0-68.267-29.867-68.267-68.267v-89.6h140.8v-140.8h-140.8v-362.667h-145.067v362.667h-119.467v140.8h119.467v102.4c0 119.467 72.533 187.733 179.2 187.733h106.667v-132.267z" />
<glyph unicode="&#xe90d;" glyph-name="social-google-plus-new" d="M68.267 460.8c4.267 145.067 136.533 273.067 281.6 268.8 68.267 4.267 136.533-25.6 187.733-68.267-21.333-25.6-46.933-51.2-72.533-72.533-64 42.667-153.6 55.467-217.6 4.267-89.6-64-93.867-213.333-8.533-281.6 85.333-76.8 247.467-38.4 268.8 81.067-55.467 0-106.667 0-162.133 0 0 29.867 0 64 0 93.867 89.6 0 179.2 0 268.8 0 4.267-76.8-4.267-153.6-51.2-217.6-68.267-98.133-209.067-128-320-85.333-106.667 42.667-183.467 162.133-174.933 277.333zM793.6 567.467c25.6 0 51.2 0 81.067 0 0-25.6 0-55.467 0-81.067 25.6 0 55.467 0 81.067 0 0-25.6 0-51.2 0-81.067-25.6 0-55.467 0-81.067 0 0-25.6 0-55.467 0-81.067-25.6 0-51.2 0-81.067 0 0 25.6 0 55.467 0 81.067-25.6 0-55.467 0-81.067 0 0 25.6 0 51.2 0 81.067 25.6 0 55.467 0 81.067 0 0 29.867 0 55.467 0 81.067z" />
<glyph unicode="&#xe90e;" glyph-name="social-instagram" d="M328.127 958.781c-33.321-1.422-73.752-5.283-94.476-9.143-119.263-22.959-200.33-104.025-223.086-223.289-8.737-45.511-9.549-67.657-9.549-278.349s0.813-232.838 9.549-278.349c22.756-119.263 103.822-200.33 223.086-223.086 45.511-8.737 67.657-9.549 278.349-9.549s232.838 0.813 278.349 9.549c119.263 22.756 200.33 103.822 223.086 223.086 8.737 45.511 9.549 67.657 9.549 278.349s-0.813 232.838-9.549 278.349c-22.756 119.67-104.432 200.94-224.305 223.289-43.683 8.127-60.749 8.737-255.797 9.346-103.822 0.203-196.267 0-205.206-0.203zM743.619 862.679c41.651-5.486 72.737-14.629 96.914-28.851 15.238-8.94 48.356-42.057 57.295-57.295 14.832-25.194 23.771-56.483 29.054-99.962 3.86-32.102 3.86-425.041 0-457.143-5.283-43.479-14.222-74.768-29.054-99.962-8.94-15.238-42.057-48.356-57.295-57.295-25.194-14.832-56.483-23.771-99.962-29.054-32.102-3.86-425.041-3.86-457.143 0-43.479 5.283-74.768 14.222-99.962 29.054-15.238 8.94-48.356 42.057-57.295 57.295-14.832 25.194-23.771 56.483-29.054 99.962-3.86 32.102-3.86 425.041 0 457.143 3.657 31.289 7.924 49.981 15.441 70.502 8.737 23.365 17.676 37.587 34.54 55.873 37.79 40.635 80.863 56.889 161.727 61.562 44.292 2.438 413.867 1.016 434.794-1.829zM764.952 779.784c-15.238-5.079-33.524-24.178-38.4-40.025-14.832-47.34 29.867-92.038 77.206-77.206 17.067 5.283 34.946 23.365 40.229 40.229 4.47 14.425 3.454 31.086-3.048 44.698-5.079 10.971-20.724 26.21-31.492 30.679-11.987 5.079-32.305 5.689-44.495 1.625zM487.619 710.095c-62.171-6.298-118.044-32.914-161.524-76.19-69.689-69.689-94.476-171.683-64.813-265.752 25.6-80.457 90.413-145.27 170.87-170.87 52.013-16.254 107.683-16.254 159.695 0 80.457 25.6 145.27 90.413 170.87 170.87 16.254 52.013 16.254 107.683 0 159.695-25.6 80.457-90.413 145.27-170.87 170.87-32.305 10.159-73.346 14.629-104.229 11.378zM552.635 613.384c18.489-4.47 51.403-20.927 66.641-33.321 18.692-15.441 33.93-34.946 45.105-57.905 13.41-27.835 16.863-43.073 16.863-74.159s-3.454-46.324-16.863-74.159c-17.27-35.962-42.26-60.749-78.222-78.222-27.835-13.41-42.87-16.863-74.159-16.863s-46.324 3.454-74.159 16.863c-35.962 17.473-60.952 42.26-78.222 78.222-5.486 11.175-11.378 26.819-13.41 34.54-4.876 19.505-4.876 59.733 0 79.238 4.876 19.708 21.333 52.419 33.727 67.657 26.413 32.102 67.86 55.67 107.886 61.359 16.863 2.235 47.949 0.813 64.813-3.251z" />
<glyph unicode="&#xe90f;" glyph-name="social-pinterest" d="M529.067 819.2c-204.8 0-307.2-145.067-307.2-268.8 0-72.533 29.867-140.8 89.6-162.133 8.533-4.267 17.067 0 21.333 12.8 0 8.533 8.533 25.6 8.533 34.133 4.267 12.8 0 12.8-4.267 25.6-17.067 21.333-29.867 46.933-29.867 85.333 0 106.667 81.067 204.8 209.067 204.8 115.2 0 179.2-68.267 179.2-162.133 0-123.733-55.467-226.133-136.533-226.133-46.933 0-76.8 38.4-68.267 81.067 12.8 55.467 38.4 110.933 38.4 153.6 0 34.133-17.067 64-59.733 64-46.933 0-81.067-46.933-81.067-110.933 0-38.4 12.8-68.267 12.8-68.267s-46.933-200.533-55.467-234.667c-17.067-68.267-4.267-153.6 0-162.133 0-4.267 8.533-4.267 8.533-4.267 4.267 4.267 59.733 72.533 76.8 140.8 4.267 17.067 29.867 119.467 29.867 119.467 12.8-29.867 59.733-55.467 106.667-55.467 136.533 0 230.4 123.733 230.4 294.4 0 119.467-106.667 238.933-268.8 238.933v0z" />
<glyph unicode="&#xe910;" glyph-name="social-twitter" d="M955.733 725.333c0 0-4.267 0-4.267 0-25.6-12.8-55.467-21.333-85.333-25.6 29.867 21.333 55.467 55.467 64 93.867 0 0 0 4.267 0 4.267s-4.267 0-4.267 0c-34.133-21.333-72.533-34.133-110.933-42.667-34.133 34.133-85.333 55.467-132.267 55.467-102.4 0-187.733-85.333-187.733-187.733 0-12.8 0-25.6 4.267-38.4-140.8 8.533-273.067 76.8-366.933 187.733 0 0-4.267 0-4.267 0s-4.267 0-4.267-4.267c-17.067-29.867-25.6-59.733-25.6-93.867 0-55.467 25.6-110.933 68.267-145.067-21.333 4.267-46.933 8.533-64 21.333 0 0-4.267 0-4.267 0s-4.267-4.267-4.267-4.267v-4.267c0-81.067 55.467-153.6 132.267-179.2-21.333-4.267-42.667-4.267-59.733 0 0 0-4.267 0-4.267 0s0-4.267 0-4.267c21.333-72.533 85.333-123.733 162.133-128-64-46.933-136.533-68.267-213.333-68.267-12.8 0-29.867 0-42.667 4.267 0 0-4.267 0-4.267-4.267 0 0 0-4.267 0-4.267 85.333-55.467 179.2-81.067 281.6-81.067 324.267 0 520.533 264.533 520.533 520.533 0 8.533 0 12.8 0 21.333 34.133 25.6 64 55.467 89.6 93.867 0 8.533 0 8.533 0 12.8v0z" />
<glyph unicode="&#xe911;" glyph-name="social-youtube" d="M955.733 661.333c-12.8 46.933-51.2 85.333-98.133 89.6-115.2 12.8-230.4 12.8-345.6 12.8s-230.4 0-345.6-12.8c-46.933-4.267-89.6-42.667-98.133-89.6-17.067-68.267-17.067-145.067-17.067-217.6s0-149.333 17.067-217.6c12.8-46.933 51.2-85.333 98.133-89.6 115.2-12.8 230.4-12.8 345.6-12.8s230.4 0 345.6 12.8c46.933 4.267 89.6 42.667 98.133 89.6 17.067 68.267 17.067 145.067 17.067 217.6s-4.267 149.333-17.067 217.6v0zM392.533 302.933v302.933c98.133-51.2 196.267-102.4 294.4-153.6-102.4-46.933-196.267-98.133-294.4-149.333v0z" />
<glyph unicode="&#xe912;" glyph-name="arrow-back" d="M685.236 65.11l-280.577 280.577 39.22 39.22 280.577-280.577-39.22-39.22zM301.769 450.323l383.154 383.154 39.22-39.22-383.154-383.154-39.22 39.22z" />
<glyph unicode="&#xe913;" glyph-name="arrow-right2" d="M328.533 42.667l405.333 405.333-405.333 405.333-38.4-38.4 362.667-366.933-362.667-366.933z" />
<glyph unicode="&#xe914;" glyph-name="hamburger" d="M315.733 226.133h388.267v-93.867h-388.267v93.867zM315.733 759.467h388.267v-93.867h-388.267v93.867zM68.267 477.867h887.467v-55.467h-887.467v55.467z" />
<glyph unicode="&#xe915;" glyph-name="arrow-down-long" d="M516.267 174.933v686.933h-12.8v-686.933l-59.733-59.733 59.733-59.733v-29.867h12.8v29.867l59.733 59.733-59.733 59.733zM507.733 76.8l-38.4 38.4 38.4 38.4v-76.8zM516.267 157.867l38.4-38.4-38.4-38.4v76.8z" />
<glyph unicode="&#xe916;" glyph-name="x-circle" d="M512 960c-282.752 0-512-229.248-512-512s229.248-512 512-512 512 229.248 512 512-229.248 512-512 512zM765.248 285.248l-90.496-90.496-162.752 162.752-162.752-162.752-90.496 90.496 162.752 162.752-162.752 162.752 90.496 90.496 162.752-162.752 162.752 162.752 90.496-90.496-162.752-162.752 162.752-162.752z" />
<glyph unicode="&#xe917;" glyph-name="x" d="M960 179.264l-268.992 268.736 268.992 268.736-179.264 179.264-268.736-268.864-268.864 268.864-179.136-179.264 268.736-268.736-268.736-268.736 179.136-179.264 268.864 268.864 268.736-268.864z" />
<glyph unicode="&#xe918;" glyph-name="check" d="M954.857 627.428q0-22.857-16-38.857l-491.429-491.429q-16-16-38.857-16t-38.857 16l-284.571 284.571q-16 16-16 38.857t16 38.857l77.714 77.714q16 16 38.857 16t38.857-16l168-168.571 374.857 375.429q16 16 38.857 16t38.857-16l77.714-77.714q16-16 16-38.857z" />
<glyph unicode="&#xe91a;" glyph-name="arrow-paginate-back" d="M725.333-21.333l-460.8 477.867 460.8 460.8 34.133-34.133-435.2-426.667 435.2-448z" />
<glyph unicode="&#xe91b;" glyph-name="arrow-paginate-next" d="M298.667-21.333l-34.133 29.867 435.2 448-435.2 426.667 34.133 34.133 460.8-460.8z" />
<glyph unicode="&#xe91c;" glyph-name="diamond-filled" d="M512 840.533l392.533-392.533-392.533-392.533-392.533 392.533 392.533 392.533z" />
<glyph unicode="&#xe91d;" glyph-name="triangle-down" d="M512 55.467l392.533 392.533h-785.067l392.533-392.533z" />
<glyph unicode="&#xe91e;" glyph-name="minus" d="M140.8 512h742.4v-128h-742.4v128z" />
<glyph unicode="&#xe91f;" glyph-name="plus" d="M883.2 512h-307.2v307.2h-128v-307.2h-307.2v-128h307.2v-307.2h128v307.2h307.2z" />
<glyph unicode="&#xe920;" glyph-name="logo-linkedin" d="M541.867 486.4v0 0c0 0 0 0 0 0zM541.867 486.4v0 0c0 0 0 0 0 0zM840.533 836.267h-657.067c-29.867 0-55.467-25.6-55.467-55.467v-665.6c0-29.867 25.6-55.467 55.467-55.467h657.067c29.867 0 55.467 25.6 55.467 55.467v665.6c4.267 29.867-21.333 55.467-55.467 55.467zM358.4 187.733h-115.2v349.867h115.2v-349.867zM302.933 584.533v0c-38.4 0-64 25.6-64 59.733s25.6 59.733 64 59.733 64-25.6 64-59.733c0-34.133-25.6-59.733-64-59.733zM780.8 187.733h-115.2v187.733c0 46.933-17.067 81.067-59.733 81.067-34.133 0-51.2-21.333-59.733-42.667-4.267-8.533-4.267-17.067-4.267-29.867v-196.267h-115.2c0 0 0 320 0 349.867h115.2v-51.2c17.067 25.6 42.667 59.733 106.667 59.733 76.8 0 132.267-51.2 132.267-157.867v-200.533zM541.867 486.4v0c0 0 0 0 0 0v0z" />
<glyph unicode="&#xe921;" glyph-name="arrow-dropdown" d="M512 234.667l-366.933 371.2 55.467 55.467 311.467-315.733 311.467 315.733 55.467-55.467z" />
<glyph unicode="&#xe922;" glyph-name="play-thin" d="M443.733 345.6v209.067l179.2-102.4-179.2-106.667zM448 541.867v-183.467l162.133 93.867-162.133 89.6zM512 55.467c-217.6 0-392.533 174.933-392.533 392.533s174.933 396.8 392.533 396.8 392.533-174.933 392.533-396.8c0-217.6-174.933-392.533-392.533-392.533zM512 836.267c-213.333 0-388.267-174.933-388.267-388.267s174.933-388.267 388.267-388.267c213.333 0 388.267 174.933 388.267 388.267s-174.933 388.267-388.267 388.267z" />
<glyph unicode="&#xe923;" glyph-name="eye-password" d="M627.2 448c0-64-51.2-115.2-115.2-115.2s-115.2 51.2-115.2 115.2 51.2 115.2 115.2 115.2 115.2-51.2 115.2-115.2v0zM977.067 460.8c-8.533 8.533-209.067 217.6-460.8 217.6-256 0-452.267-209.067-460.8-217.6s-8.533-21.333 0-29.867c8.533-8.533 209.067-217.6 460.8-217.6 256 0 452.267 209.067 460.8 217.6 4.267 12.8 4.267 21.333 0 29.867v0zM512 273.067c-98.133 0-174.933 81.067-174.933 174.933s81.067 174.933 174.933 174.933 174.933-81.067 174.933-174.933-76.8-174.933-174.933-174.933v0zM371.2 614.4c-46.933-38.4-76.8-98.133-76.8-166.4s29.867-128 81.067-166.4c-132.267 42.667-238.933 132.267-273.067 166.4 29.867 34.133 136.533 123.733 268.8 166.4v0zM652.8 281.6c46.933 38.4 81.067 98.133 81.067 166.4s-29.867 128-81.067 166.4c132.267-42.667 238.933-132.267 277.333-166.4-38.4-34.133-145.067-123.733-277.333-166.4v0z" />
<glyph unicode="&#xe924;" glyph-name="vpa-btn-diamond-filled" d="M512 921.6l-473.6-473.6 473.6-473.6 473.6 473.6-473.6 473.6z" />
<glyph unicode="&#xe925;" glyph-name="vpa-btn-diamond" d="M512 887.467l439.467-439.467-439.467-439.467-439.467 439.467 439.467 439.467zM512 921.6l-473.6-473.6 473.6-473.6 473.6 473.6-473.6 473.6z" />
<glyph unicode="&#xe926;" glyph-name="vpa-btn-lines-4" d="M379.733 554.667h25.6v-209.067h-25.6v209.067zM460.8 554.667h25.6v-209.067h-25.6v209.067zM537.6 554.667h25.6v-209.067h-25.6v209.067zM614.4 554.667h25.6v-209.067h-25.6v209.067z" />
<glyph unicode="&#xe927;" glyph-name="vpa-btn-lines-5" d="M341.333 554.667h25.6v-209.067h-25.6v209.067zM422.4 554.667h25.6v-209.067h-25.6v209.067zM499.2 554.667h25.6v-209.067h-25.6v209.067zM576 554.667h25.6v-209.067h-25.6v209.067zM657.067 554.667h25.6v-209.067h-25.6v209.067z" />
<glyph unicode="&#xe928;" glyph-name="vpa-btn-lines-6" d="M302.933 554.667h25.6v-209.067h-25.6v209.067zM379.733 554.667h25.6v-209.067h-25.6v209.067zM460.8 554.667h25.6v-209.067h-25.6v209.067zM537.6 554.667h25.6v-209.067h-25.6v209.067zM614.4 554.667h25.6v-209.067h-25.6v209.067zM695.467 554.667h25.6v-209.067h-25.6v209.067z" />
<glyph unicode="&#xe929;" glyph-name="nav-edge-rt" horiz-adv-x="898" d="M0 187.509v-251.509l898.246 898.246-125.754 125.754z" />
<glyph unicode="&#xe92a;" glyph-name="nav-edge-left" horiz-adv-x="898" d="M898.246 187.509v-251.509l-898.246 898.246 125.754 125.754z" />
<glyph unicode="&#xe92b;" glyph-name="nav-edge-left-2" d="M143.36 816.64l880.64-880.64v286.72l-737.28 737.28z" />
<glyph unicode="&#xe92c;" glyph-name="nav-edge-rt-2" d="M880.64 816.64l-880.64-880.64v286.72l737.28 737.28z" />
<glyph unicode="&#xe92d;" glyph-name="nav-edge-lft-3" d="M337.92 622.080l686.080-686.080v286.72l-542.72 552.96z" />
<glyph unicode="&#xe92e;" glyph-name="nav-edge-rt-3" d="M686.080 622.080l-686.080-686.080v286.72l542.72 552.96z" />
<glyph unicode="&#xe92f;" glyph-name="circle" d="M512 913.067c-256 0-465.067-209.067-465.067-465.067s209.067-465.067 465.067-465.067 465.067 209.067 465.067 465.067-209.067 465.067-465.067 465.067z" />
<glyph unicode="&#xe930;" glyph-name="explore-nav-symbol" d="M665.6 307.2l-136.533 136.533v349.867h-29.867v-349.867l-136.533-136.533 136.533-136.533v-68.267h29.867v68.267l136.533 136.533zM622.933 307.2l-93.867-93.867v187.733l93.867-93.867zM401.067 307.2l93.867 93.867v-187.733l-93.867 93.867z" />
<glyph unicode="&#xe931;" glyph-name="explore-nav-circle-bg" d="M972.8 435.2c0 4.267 0 4.267 4.267 8.533 0 4.267 0 4.267 0 8.533 0 21.333 0 46.933-4.267 68.267 0 0 0 0 0 4.267v0c-4.267 38.4-17.067 76.8-34.133 115.2-8.533 0-12.8 4.267-12.8 12.8 0 4.267 0 4.267 4.267 8.533-4.267 12.8-12.8 21.333-17.067 34.133 0-8.533-8.533-12.8-17.067-12.8s-12.8 8.533-12.8 17.067c0 8.533 8.533 12.8 17.067 12.8 0 0 0 0 0 0-29.867 46.933-72.533 89.6-115.2 119.467 4.267-8.533 0-17.067-8.533-21.333s-17.067 0-21.333 8.533 0 17.067 8.533 21.333c0 0 4.267 0 4.267 0-8.533 4.267-17.067 12.8-25.6 17.067-4.267-8.533-17.067-12.8-25.6-4.267-8.533 4.267-8.533 12.8-8.533 21.333-29.867 12.8-59.733 25.6-93.867 29.867-4.267-8.533-12.8-17.067-21.333-12.8-8.533 0-17.067 8.533-12.8 17.067 0 0 0 0 0 4.267-17.067 4.267-34.133 4.267-51.2 4.267 4.267-8.533 0-21.333-8.533-25.6s-21.333 0-25.6 8.533c0 4.267 0 8.533 0 12.8-17.067 0-34.133 0-51.2-4.267 0 0 0 0 0-4.267 0-8.533-8.533-17.067-17.067-17.067s-17.067 4.267-17.067 12.8c-29.867-8.533-64-17.067-93.867-29.867 4.267-8.533-4.267-21.333-12.8-21.333-8.533-4.267-17.067 0-21.333 4.267-8.533-4.267-17.067-8.533-25.6-17.067 8.533 0 17.067-8.533 17.067-17.067s-8.533-17.067-17.067-17.067c-8.533 0-17.067 8.533-17.067 17.067 0 0 0 4.267 0 4.267-46.933-34.133-85.333-72.533-115.2-119.467 8.533 4.267 17.067 0 17.067-8.533 4.267-8.533 0-17.067-8.533-17.067s-17.067 0-17.067 8.533c0 0 0 4.267 0 4.267-8.533-12.8-12.8-21.333-17.067-34.133 4.267-4.267 4.267-12.8 0-17.067s-8.533-4.267-12.8-4.267v0c-12.8-34.133-25.6-72.533-29.867-110.933 0 0 4.267-4.267 4.267-8.533s0-8.533-4.267-8.533c-8.533-17.067-8.533-38.4-8.533-59.733 0 0 0-4.267 0-4.267 4.267 0 8.533-4.267 8.533-8.533s-4.267-8.533-8.533-8.533c12.8-256 230.4-452.267 486.4-443.733 238.933 12.8 430.933 204.8 443.733 443.733-4.267 4.267-4.267 4.267-4.267 8.533zM89.6 384c-4.267 0-8.533 4.267-8.533 8.533s4.267 8.533 8.533 8.533 8.533-4.267 8.533-8.533c0-4.267-4.267-8.533-8.533-8.533v0zM89.6 469.333c-4.267 0-8.533 4.267-8.533 8.533s4.267 8.533 8.533 8.533c4.267 0 8.533-4.267 8.533-8.533s-4.267-8.533-8.533-8.533c0 0 0 0 0 0zM89.6 550.4c-4.267 0-12.8 4.267-12.8 12.8 0 4.267 4.267 12.8 12.8 12.8 4.267 0 12.8-4.267 12.8-12.8 0 0 0 0 0 0-4.267-8.533-8.533-12.8-12.8-12.8zM132.267 341.333c-4.267 0-8.533 4.267-8.533 8.533s4.267 8.533 8.533 8.533c4.267 0 8.533-4.267 8.533-8.533s-4.267-8.533-8.533-8.533c0 0 0 0 0 0zM132.267 426.667c-4.267 0-8.533 4.267-8.533 8.533s4.267 8.533 8.533 8.533c4.267 0 8.533-4.267 8.533-8.533 0 0 0 0 0 0 0-4.267-4.267-8.533-8.533-8.533zM132.267 507.733c-4.267 0-8.533 4.267-8.533 8.533s4.267 8.533 8.533 8.533c4.267 0 8.533-4.267 8.533-8.533s-4.267-8.533-8.533-8.533c0 0 0 0 0 0v0zM128 593.067c-8.533 0-12.8 4.267-12.8 12.8 4.267 8.533 8.533 12.8 12.8 12.8 8.533 0 12.8-4.267 12.8-12.8 0 0 0 0 0 0 0-8.533-4.267-12.8-12.8-12.8zM174.933 384c-4.267 0-8.533 4.267-8.533 8.533s4.267 8.533 8.533 8.533c4.267 0 8.533-4.267 8.533-8.533s-4.267-8.533-8.533-8.533c0 0 0 0 0 0v0zM174.933 469.333c-4.267 0-8.533 4.267-8.533 8.533s4.267 8.533 8.533 8.533 8.533-4.267 8.533-8.533v0c0-4.267-4.267-8.533-8.533-8.533 0 0 0 0 0 0v0zM174.933 550.4c-4.267 0-12.8 4.267-12.8 12.8s4.267 12.8 12.8 12.8c4.267 0 12.8-4.267 12.8-12.8 0 0 0 0 0 0-4.267-8.533-8.533-12.8-12.8-12.8v0zM170.667 635.733c-8.533 0-12.8 4.267-12.8 12.8s8.533 12.8 12.8 12.8c8.533 0 12.8-4.267 12.8-12.8v0c4.267-8.533-4.267-12.8-12.8-12.8zM170.667 716.8c-8.533 0-17.067 8.533-17.067 17.067s8.533 17.067 17.067 17.067 17.067-8.533 17.067-17.067c0 0 0 0 0 0 0-8.533-8.533-12.8-17.067-17.067v0zM217.6 341.333c-4.267 0-8.533 4.267-8.533 8.533s4.267 8.533 8.533 8.533 8.533-4.267 8.533-8.533c-4.267-4.267-4.267-8.533-8.533-8.533v0zM217.6 426.667c-4.267 0-8.533 4.267-8.533 8.533s4.267 8.533 8.533 8.533 8.533-4.267 8.533-8.533c0-4.267-4.267-8.533-8.533-8.533v0zM217.6 507.733c-4.267 0-8.533 4.267-8.533 8.533s4.267 8.533 8.533 8.533c4.267 0 8.533-4.267 8.533-8.533s-4.267-8.533-8.533-8.533v0zM213.333 593.067c-8.533 0-12.8 4.267-12.8 12.8s8.533 12.8 12.8 12.8c8.533 0 12.8-4.267 12.8-12.8v0c0-8.533-4.267-12.8-12.8-12.8zM213.333 678.4c-8.533 0-12.8 8.533-12.8 12.8s4.267 12.8 12.8 12.8c8.533 0 12.8-8.533 12.8-12.8 0 0 0 0 0 0 4.267-8.533-4.267-12.8-12.8-12.8 0 0 0 0 0 0v0zM213.333 759.467c-8.533 0-17.067 8.533-17.067 17.067s8.533 17.067 17.067 17.067 17.067-8.533 17.067-17.067v0c0-8.533-8.533-17.067-17.067-17.067 0 0 0 0 0 0v0zM260.267 384c-4.267 0-8.533 4.267-8.533 8.533s4.267 8.533 8.533 8.533c4.267 0 8.533-4.267 8.533-8.533s-4.267-8.533-8.533-8.533c0 0 0 0 0 0v0zM260.267 469.333c-4.267 0-8.533 4.267-8.533 8.533s4.267 8.533 8.533 8.533c4.267 0 8.533-4.267 8.533-8.533v0c0-4.267-4.267-8.533-8.533-8.533 0 0 0 0 0 0v0zM260.267 550.4c-4.267 0-12.8 4.267-12.8 12.8 0 4.267 4.267 12.8 8.533 12.8s12.8-4.267 12.8-12.8c0 0 0 0 0 0 0-8.533-4.267-12.8-8.533-12.8s-4.267 0 0 0v0zM256 635.733c-8.533 0-12.8 4.267-12.8 12.8s8.533 12.8 12.8 12.8c8.533 0 12.8-4.267 12.8-12.8 0 0 0 0 0 0 0-8.533-4.267-12.8-12.8-12.8zM256 716.8c-8.533 0-17.067 8.533-17.067 17.067s8.533 17.067 17.067 17.067c8.533 0 17.067-8.533 17.067-17.067 0 0 0 0 0 0 0-8.533-8.533-12.8-17.067-17.067v0zM302.933 341.333c-4.267 0-8.533 4.267-8.533 8.533s4.267 8.533 8.533 8.533c4.267 0 8.533-4.267 8.533-8.533-4.267-4.267-4.267-8.533-8.533-8.533v0zM302.933 426.667c-4.267 0-8.533 4.267-8.533 8.533s4.267 8.533 8.533 8.533 8.533-4.267 8.533-8.533c0-4.267-4.267-8.533-8.533-8.533v0zM302.933 507.733c-4.267 0-8.533 4.267-8.533 8.533s4.267 8.533 8.533 8.533c4.267 0 8.533-4.267 8.533-8.533s-4.267-8.533-8.533-8.533v0zM298.667 593.067c-8.533 0-12.8 4.267-12.8 12.8s8.533 12.8 12.8 12.8c8.533 0 12.8-4.267 12.8-12.8v0c0-8.533-4.267-12.8-12.8-12.8zM298.667 678.4c-8.533 0-12.8 8.533-12.8 12.8s8.533 17.067 12.8 12.8c8.533 0 12.8-8.533 12.8-12.8 4.267-8.533-4.267-12.8-12.8-12.8 0 0 0 0 0 0v0zM298.667 759.467c-8.533 0-17.067 8.533-17.067 17.067s8.533 17.067 17.067 17.067c8.533 0 17.067-8.533 17.067-17.067v0c0-8.533-8.533-17.067-17.067-17.067 0 0 0 0 0 0v0zM345.6 384c-4.267 0-8.533 4.267-8.533 8.533s4.267 8.533 8.533 8.533c4.267 0 8.533-4.267 8.533-8.533s-4.267-8.533-8.533-8.533v0zM345.6 469.333c-4.267 0-8.533 4.267-8.533 8.533s4.267 8.533 8.533 8.533c4.267 0 8.533-4.267 8.533-8.533v0c0-4.267-4.267-8.533-8.533-8.533 0 0 0 0 0 0v0zM341.333 550.4c-4.267 0-12.8 4.267-12.8 12.8s8.533 12.8 12.8 12.8 12.8-4.267 12.8-12.8c0 0 0 0 0 0 0-8.533-4.267-12.8-12.8-12.8v0zM341.333 635.733c-8.533 0-12.8 4.267-12.8 12.8s8.533 12.8 12.8 12.8c8.533 0 12.8-4.267 12.8-12.8 0 0 0 0 0 0 0-8.533-4.267-12.8-12.8-12.8zM341.333 716.8c-8.533 0-17.067 8.533-17.067 17.067s8.533 17.067 17.067 17.067c8.533 0 17.067-8.533 17.067-17.067 0 0 0 0 0 0 0-8.533-8.533-12.8-17.067-17.067v0zM341.333 802.133c-8.533 0-17.067 8.533-17.067 17.067s8.533 17.067 17.067 17.067c8.533 0 17.067-8.533 17.067-17.067s-8.533-17.067-17.067-17.067c0 0 0 0 0 0v0zM388.267 341.333c-4.267 0-8.533 4.267-8.533 8.533s4.267 8.533 8.533 8.533c4.267 0 8.533-4.267 8.533-8.533-4.267-4.267-4.267-8.533-8.533-8.533v0zM388.267 426.667c-4.267 0-8.533 4.267-8.533 8.533s4.267 8.533 8.533 8.533c4.267 0 8.533-4.267 8.533-8.533s-4.267-8.533-8.533-8.533v0zM388.267 507.733c-4.267 0-8.533 4.267-8.533 8.533s4.267 8.533 8.533 8.533c4.267 0 8.533-4.267 8.533-8.533s-4.267-8.533-8.533-8.533zM384 593.067c-8.533 0-12.8 4.267-12.8 12.8s8.533 12.8 12.8 12.8c8.533 0 12.8-4.267 12.8-12.8v0c0-8.533-4.267-12.8-12.8-12.8zM384 678.4c-8.533 0-12.8 8.533-12.8 12.8s4.267 12.8 12.8 12.8c8.533 0 12.8-8.533 12.8-12.8 0 0 0 0 0 0 4.267-8.533-4.267-12.8-12.8-12.8 0 0 0 0 0 0v0zM384 759.467c-8.533 0-17.067 8.533-17.067 17.067s8.533 17.067 17.067 17.067c8.533 0 17.067-8.533 17.067-17.067v0c0-8.533-8.533-17.067-17.067-17.067 0 0 0 0 0 0v0zM384 844.8c-8.533 0-17.067 8.533-17.067 17.067s8.533 17.067 17.067 17.067c8.533 0 17.067-8.533 17.067-17.067s-8.533-17.067-17.067-17.067c0 0 0 0 0 0v0zM430.933 384c-4.267 0-8.533 4.267-8.533 8.533s4.267 8.533 8.533 8.533c4.267 0 8.533-4.267 8.533-8.533s-4.267-8.533-8.533-8.533c0 0 0 0 0 0v0zM430.933 469.333c-4.267 0-8.533 4.267-8.533 8.533s4.267 8.533 8.533 8.533c4.267 0 8.533-4.267 8.533-8.533 0 0 0 0 0 0 0-4.267-4.267-8.533-8.533-8.533 0 0 0 0 0 0v0zM426.667 550.4c-4.267 0-12.8 4.267-12.8 12.8 4.267 4.267 8.533 12.8 12.8 12.8s12.8-4.267 12.8-12.8c0 0 0 0 0 0 0-8.533-4.267-12.8-12.8-12.8v0zM426.667 635.733c-8.533 0-12.8 4.267-12.8 12.8s8.533 12.8 12.8 12.8 12.8-4.267 12.8-12.8c0 0 0 0 0 0 0-8.533-4.267-12.8-12.8-12.8zM426.667 721.067c-8.533 0-17.067 8.533-17.067 17.067s8.533 17.067 17.067 17.067c8.533 0 17.067-8.533 17.067-17.067 0 0 0 0 0 0 0-12.8-8.533-17.067-17.067-17.067zM426.667 802.133c-8.533 0-17.067 8.533-17.067 17.067s8.533 17.067 17.067 17.067c8.533 0 17.067-8.533 17.067-17.067 0 0 0 0 0 0 0-8.533-8.533-17.067-17.067-17.067 0 0 0 0 0 0v0zM473.6 341.333c-4.267 0-8.533 4.267-8.533 8.533s4.267 8.533 8.533 8.533 8.533-4.267 8.533-8.533c-4.267-4.267-4.267-8.533-8.533-8.533 0 0 0 0 0 0v0zM473.6 426.667c-4.267 0-8.533 4.267-8.533 8.533s4.267 8.533 8.533 8.533c4.267 0 8.533-4.267 8.533-8.533s-4.267-8.533-8.533-8.533c0 0 0 0 0 0v0zM473.6 507.733c-4.267 0-8.533 4.267-8.533 8.533s4.267 8.533 8.533 8.533c4.267 0 8.533-4.267 8.533-8.533s-4.267-8.533-8.533-8.533c0 0 0 0 0 0v0zM469.333 593.067c-8.533 0-12.8 4.267-12.8 12.8s8.533 12.8 12.8 12.8 12.8-4.267 12.8-12.8v0c0-8.533-4.267-12.8-12.8-12.8zM469.333 678.4c-8.533 0-12.8 4.267-12.8 12.8s4.267 12.8 12.8 12.8 12.8-4.267 12.8-12.8c0 0 0 0 0 0 4.267-8.533-4.267-12.8-12.8-12.8v0zM469.333 759.467c-8.533 0-17.067 8.533-17.067 17.067s8.533 17.067 17.067 17.067 17.067-8.533 17.067-17.067v0c0-8.533-8.533-17.067-17.067-17.067 0 0 0 0 0 0v0zM469.333 844.8c-8.533 0-17.067 8.533-17.067 17.067s8.533 17.067 17.067 17.067c8.533 0 17.067-8.533 17.067-17.067s-8.533-17.067-17.067-17.067v0zM516.267 384c-4.267 0-8.533 4.267-8.533 8.533s4.267 8.533 8.533 8.533c4.267 0 8.533-4.267 8.533-8.533s-4.267-8.533-8.533-8.533zM512 469.333c-4.267 0-8.533 4.267-8.533 8.533s4.267 8.533 8.533 8.533c4.267 0 8.533-4.267 8.533-8.533 0 0 0 0 0 0 4.267-4.267 0-8.533-8.533-8.533zM512 550.4c-4.267 0-12.8 4.267-12.8 12.8 4.267 4.267 8.533 12.8 12.8 12.8s12.8-4.267 12.8-12.8c0-8.533-4.267-12.8-12.8-12.8 0 0 0 0 0 0v0zM512 635.733c-8.533 0-12.8 4.267-12.8 12.8s4.267 12.8 12.8 12.8c8.533 0 12.8-4.267 12.8-12.8 0 0 0 0 0 0 0-8.533-4.267-12.8-12.8-12.8zM512 716.8c-8.533 0-17.067 8.533-17.067 17.067s8.533 17.067 17.067 17.067 17.067-8.533 17.067-17.067c0 0 0 0 0 0 0-8.533-8.533-12.8-17.067-17.067v0zM512 802.133c-8.533 0-17.067 8.533-17.067 17.067s8.533 17.067 17.067 17.067c8.533 0 17.067-8.533 17.067-17.067s-8.533-17.067-17.067-17.067c0 0 0 0 0 0v0zM558.933 341.333c-4.267 0-8.533 4.267-8.533 8.533s4.267 8.533 8.533 8.533 8.533-4.267 8.533-8.533c-4.267-4.267-4.267-8.533-8.533-8.533v0zM558.933 426.667c-4.267 0-8.533 4.267-8.533 8.533s4.267 8.533 8.533 8.533c4.267 0 8.533-4.267 8.533-8.533s-4.267-8.533-8.533-8.533v0zM554.667 507.733c-4.267 0-8.533 4.267-8.533 8.533s4.267 8.533 8.533 8.533c4.267 0 8.533-4.267 8.533-8.533 4.267-4.267 0-8.533-8.533-8.533v0zM554.667 593.067c-8.533 0-12.8 4.267-12.8 12.8s8.533 12.8 12.8 12.8c8.533 0 12.8-4.267 12.8-12.8v0c0-8.533-4.267-12.8-12.8-12.8zM554.667 678.4c-8.533 0-12.8 8.533-12.8 12.8s4.267 12.8 12.8 12.8c8.533 0 12.8-8.533 12.8-12.8 0 0 0 0 0 0 4.267-8.533-4.267-12.8-12.8-12.8 0 0 0 0 0 0v0zM554.667 759.467c-8.533 0-17.067 8.533-17.067 17.067s8.533 17.067 17.067 17.067 17.067-8.533 17.067-17.067v0c0-8.533-8.533-17.067-17.067-17.067 0 0 0 0 0 0v0zM554.667 844.8c-8.533 0-17.067 8.533-17.067 17.067s8.533 17.067 17.067 17.067c8.533 0 17.067-8.533 17.067-17.067 0 0 0 0 0 0 0-8.533-8.533-17.067-17.067-17.067v0zM601.6 384c-4.267 0-8.533 4.267-8.533 8.533s4.267 8.533 8.533 8.533c4.267 0 8.533-4.267 8.533-8.533s-4.267-8.533-8.533-8.533c0 0 0 0 0 0v0zM597.333 469.333c-4.267 0-8.533 4.267-8.533 8.533s4.267 8.533 8.533 8.533c4.267 0 8.533-4.267 8.533-8.533 0 0 0 0 0 0 4.267-4.267 0-8.533-8.533-8.533 4.267 0 0 0 0 0v0zM597.333 550.4c-4.267 0-12.8 4.267-12.8 12.8 4.267 4.267 8.533 12.8 12.8 12.8s12.8-4.267 12.8-12.8c0 0 0 0 0 0 0-8.533-4.267-12.8-12.8-12.8v0zM597.333 635.733c-8.533 0-12.8 4.267-12.8 12.8s4.267 12.8 12.8 12.8c8.533 0 12.8-4.267 12.8-12.8 0 0 0 0 0 0 0-8.533-4.267-12.8-12.8-12.8zM597.333 716.8c-8.533 0-17.067 8.533-17.067 17.067s8.533 17.067 17.067 17.067c8.533 0 12.8-8.533 17.067-12.8 0-12.8-8.533-17.067-17.067-21.333 0 4.267 0 4.267 0 0v0zM597.333 802.133c-8.533 0-17.067 8.533-17.067 17.067s8.533 17.067 17.067 17.067c8.533 0 17.067-8.533 17.067-17.067s-8.533-17.067-17.067-17.067c0 0 0 0 0 0v0zM644.267 341.333c-4.267 0-8.533 4.267-8.533 8.533s4.267 8.533 8.533 8.533 8.533-4.267 8.533-8.533c-4.267-4.267-4.267-8.533-8.533-8.533v0zM644.267 426.667c-4.267 0-8.533 4.267-8.533 8.533s4.267 8.533 8.533 8.533c4.267 0 8.533-4.267 8.533-8.533s-4.267-8.533-8.533-8.533v0zM640 507.733c-4.267 0-8.533 4.267-8.533 8.533s4.267 8.533 8.533 8.533 8.533-4.267 8.533-8.533c4.267-4.267 0-8.533-8.533-8.533v0zM640 593.067c-8.533 0-12.8 4.267-12.8 12.8s8.533 12.8 12.8 12.8c8.533 0 12.8-4.267 12.8-12.8v0c0-8.533-4.267-12.8-12.8-12.8zM640 678.4c-8.533 0-12.8 8.533-12.8 12.8s4.267 12.8 12.8 12.8c8.533 0 12.8-8.533 12.8-12.8 0 0 0 0 0 0 4.267-8.533-4.267-12.8-12.8-12.8 0 0 0 0 0 0v0zM640 759.467c-8.533 0-17.067 8.533-17.067 17.067s8.533 17.067 17.067 17.067 17.067-8.533 17.067-17.067v0c0-8.533-8.533-17.067-17.067-17.067 0 0 0 0 0 0v0zM640 844.8c-8.533 0-17.067 8.533-17.067 17.067s8.533 17.067 17.067 17.067c8.533 0 17.067-8.533 17.067-17.067 0 0 0 0 0 0 0-8.533-8.533-17.067-17.067-17.067 0 0 0 0 0 0v0zM686.933 384c-4.267 0-8.533 4.267-8.533 8.533s4.267 8.533 8.533 8.533c4.267 0 8.533-4.267 8.533-8.533s-4.267-8.533-8.533-8.533v0zM682.667 469.333c-4.267 0-8.533 4.267-8.533 8.533s4.267 8.533 8.533 8.533c4.267 0 8.533-4.267 8.533-8.533 0 0 0 0 0 0 4.267-4.267 0-8.533-8.533-8.533 0 0 0 0 0 0v0zM682.667 550.4c-4.267 0-12.8 4.267-12.8 12.8 4.267 4.267 8.533 12.8 12.8 12.8s12.8-4.267 12.8-12.8c0 0 0 0 0 0 0-8.533-4.267-12.8-12.8-12.8v0zM682.667 635.733c-8.533 0-12.8 4.267-12.8 12.8s4.267 12.8 12.8 12.8c8.533 0 12.8-4.267 12.8-12.8 0 0 0 0 0 0 0-8.533-4.267-12.8-12.8-12.8zM682.667 716.8c-8.533 0-17.067 8.533-17.067 17.067s8.533 17.067 17.067 17.067 17.067-8.533 17.067-17.067c0 0 0 0 0 0 0-8.533-8.533-12.8-17.067-17.067v0zM682.667 802.133c-8.533 0-17.067 8.533-17.067 17.067s8.533 17.067 17.067 17.067c8.533 0 17.067-8.533 17.067-17.067s-8.533-17.067-17.067-17.067c0 0 0 0 0 0v0zM729.6 341.333c-4.267 0-8.533 4.267-8.533 8.533s4.267 8.533 8.533 8.533 8.533-4.267 8.533-8.533c-4.267-4.267-8.533-8.533-8.533-8.533v0zM729.6 426.667c-4.267 0-8.533 4.267-8.533 8.533s4.267 8.533 8.533 8.533 8.533-4.267 8.533-8.533c0-4.267-4.267-8.533-8.533-8.533v0zM725.333 507.733c-4.267 0-8.533 4.267-8.533 8.533s4.267 8.533 8.533 8.533c4.267 0 8.533-4.267 8.533-8.533s0-8.533-8.533-8.533zM725.333 593.067c-8.533 0-12.8 4.267-12.8 12.8s8.533 12.8 12.8 12.8c8.533 0 12.8-4.267 12.8-12.8v0c0-8.533-4.267-12.8-12.8-12.8zM725.333 678.4c-8.533 0-12.8 8.533-12.8 12.8s4.267 12.8 12.8 12.8c8.533 0 12.8-8.533 12.8-12.8 0 0 0 0 0 0 0-8.533-4.267-12.8-12.8-12.8 0 0 0 0 0 0v0zM725.333 759.467c-8.533 0-17.067 8.533-17.067 17.067s8.533 17.067 17.067 17.067c8.533 0 17.067-8.533 17.067-17.067v0c0-8.533-8.533-17.067-17.067-17.067 0 0 0 0 0 0v0zM772.267 384c-4.267 0-8.533 4.267-8.533 8.533s4.267 8.533 8.533 8.533c4.267 0 8.533-4.267 8.533-8.533v0c-4.267-4.267-4.267-8.533-8.533-8.533 0 0 0 0 0 0v0zM768 469.333c-4.267 0-8.533 4.267-8.533 8.533s4.267 8.533 8.533 8.533c4.267 0 8.533-4.267 8.533-8.533 4.267-4.267 0-8.533-8.533-8.533 0 0 0 0 0 0v0zM768 550.4c-4.267 0-12.8 4.267-12.8 12.8 4.267 4.267 8.533 12.8 12.8 12.8s12.8-4.267 12.8-12.8c0 0 0 0 0 0 0-8.533-4.267-12.8-12.8-12.8v0zM768 635.733c-8.533 0-12.8 4.267-12.8 12.8s4.267 12.8 12.8 12.8c8.533 0 12.8-4.267 12.8-12.8s-4.267-12.8-12.8-12.8v0zM768 721.067c-8.533 0-17.067 8.533-17.067 17.067s8.533 17.067 17.067 17.067 17.067-8.533 17.067-17.067-8.533-17.067-17.067-17.067v0zM810.667 341.333c-4.267 0-8.533 4.267-8.533 8.533s8.533 4.267 8.533 4.267c4.267 0 8.533-4.267 8.533-8.533 0 0-4.267-4.267-8.533-4.267v0zM810.667 426.667c-4.267 0-8.533 4.267-8.533 8.533s4.267 8.533 8.533 8.533c4.267 0 8.533-4.267 8.533-8.533s0-8.533-8.533-8.533v0zM810.667 507.733c-4.267 0-8.533 4.267-8.533 8.533s4.267 8.533 8.533 8.533 8.533-4.267 8.533-8.533c4.267-4.267 0-8.533-8.533-8.533v0zM810.667 593.067c-8.533 0-12.8 4.267-12.8 12.8s8.533 12.8 12.8 12.8c8.533 0 12.8-4.267 12.8-12.8v0c0-8.533-4.267-12.8-12.8-12.8zM810.667 678.4c-8.533 0-12.8 8.533-12.8 12.8 0 8.533 4.267 12.8 12.8 12.8s12.8-8.533 12.8-12.8c0 0 0 0 0 0 0-8.533-4.267-12.8-12.8-12.8v0zM810.667 759.467c-8.533 0-17.067 8.533-17.067 17.067s8.533 17.067 17.067 17.067c8.533 0 17.067-8.533 17.067-17.067v0c0-8.533-8.533-17.067-17.067-17.067 0 0 0 0 0 0v0zM853.333 384c-4.267 0-8.533 4.267-8.533 8.533s4.267 8.533 8.533 8.533c4.267 0 8.533-4.267 8.533-8.533v0c0-4.267 0-8.533-8.533-8.533 4.267 0 0 0 0 0v0zM853.333 469.333c-4.267 0-8.533 4.267-8.533 8.533s4.267 8.533 8.533 8.533c4.267 0 8.533-4.267 8.533-8.533 4.267-4.267 0-8.533-8.533-8.533 0 0 0 0 0 0v0zM853.333 550.4c-4.267 0-12.8 4.267-12.8 12.8 0 4.267 8.533 12.8 12.8 12.8s12.8-4.267 12.8-12.8c0 0 0 0 0 0 0-8.533-4.267-12.8-12.8-12.8v0 0zM853.333 635.733c-8.533 0-12.8 4.267-12.8 12.8s4.267 12.8 12.8 12.8c8.533 0 12.8-4.267 12.8-12.8s-4.267-12.8-12.8-12.8v0zM853.333 716.8c-8.533 0-17.067 8.533-17.067 17.067s8.533 17.067 17.067 17.067c8.533 0 17.067-8.533 17.067-17.067-4.267-8.533-8.533-12.8-17.067-17.067v0zM896 341.333c-4.267 0-8.533 4.267-8.533 8.533s8.533 4.267 8.533 4.267c4.267 0 8.533-4.267 8.533-8.533s-4.267-4.267-8.533-4.267v0zM896 426.667c-4.267 0-8.533 4.267-8.533 8.533s4.267 8.533 8.533 8.533c4.267 0 8.533-4.267 8.533-8.533s0-8.533-8.533-8.533zM896 507.733c-4.267 0-8.533 4.267-8.533 8.533s4.267 8.533 8.533 8.533 8.533-4.267 8.533-8.533c4.267-4.267 0-8.533-8.533-8.533 0 0 0 0 0 0v0zM896 593.067c-8.533 0-12.8 4.267-12.8 12.8s4.267 12.8 12.8 12.8c8.533 0 12.8-4.267 12.8-12.8v0c0-8.533-4.267-12.8-12.8-12.8zM938.667 384c-4.267 0-8.533 4.267-8.533 8.533s4.267 8.533 8.533 8.533c4.267 0 8.533-4.267 8.533-8.533v0c0-4.267 0-8.533-8.533-8.533 0 0 0 0 0 0v0zM938.667 469.333c-4.267 0-8.533 4.267-8.533 8.533s4.267 8.533 8.533 8.533c4.267 0 8.533-4.267 8.533-8.533 4.267-4.267 0-8.533-8.533-8.533 0 0 0 0 0 0v0zM938.667 550.4c-4.267 0-12.8 4.267-12.8 12.8 0 4.267 8.533 12.8 12.8 12.8s12.8-4.267 12.8-12.8c0 0 0 0 0 0 0-8.533-4.267-12.8-12.8-12.8v0 0z" />
<glyph unicode="&#xe932;" glyph-name="social-wechat" d="M669.867 588.8c8.533 0 21.333 0 29.867 0-25.6 128-162.133 217.6-315.733 217.6-170.667 0-311.467-115.2-311.467-264.533 0-85.333 46.933-157.867 123.733-209.067l-29.867-93.867 110.933 55.467c34.133-8.533 68.267-17.067 106.667-17.067 8.533 0 21.333 0 29.867 0-4.267 21.333-8.533 42.667-8.533 64-4.267 136.533 115.2 247.467 264.533 247.467v0zM499.2 674.133c25.6 0 38.4-17.067 38.4-38.4s-17.067-38.4-38.4-38.4c-21.333 0-46.933 17.067-46.933 38.4 0 25.6 25.6 38.4 46.933 38.4v0zM281.6 597.333c-21.333 0-46.933 17.067-46.933 38.4s25.6 38.4 46.933 38.4c21.333 0 38.4-17.067 38.4-38.4s-17.067-38.4-38.4-38.4v0zM955.733 345.6c0 123.733-123.733 226.133-264.533 226.133-149.333 0-264.533-102.4-264.533-226.133s115.2-226.133 264.533-226.133c29.867 0 64 8.533 93.867 17.067l85.333-46.933-25.6 76.8c64 46.933 110.933 110.933 110.933 179.2zM601.6 384c-17.067 0-29.867 17.067-29.867 29.867 0 17.067 17.067 29.867 29.867 29.867 25.6 4.267 38.4-12.8 38.4-25.6 0-17.067-12.8-34.133-38.4-34.133zM772.267 384c-17.067 0-29.867 17.067-29.867 29.867 0 17.067 17.067 29.867 29.867 29.867 25.6 0 38.4-17.067 38.4-29.867 4.267-12.8-12.8-29.867-38.4-29.867z" />
<glyph unicode="&#xe933;" glyph-name="social-weibo" d="M443.733 145.067c-145.067-17.067-273.067 46.933-277.333 145.067s102.4 183.467 243.2 200.533 273.067-46.933 277.333-145.067c12.8-98.133-98.133-183.467-243.2-200.533v0zM405.333 260.267c-17.067-21.333-42.667-34.133-64-21.333s-25.6 38.4-17.067 59.733c17.067 21.333 42.667 29.867 64 21.333 21.333-12.8 34.133-38.4 17.067-59.733zM452.267 320c-4.267-12.8-17.067-12.8-25.6-12.8-12.8 4.267-12.8 12.8-4.267 21.333 4.267 12.8 17.067 17.067 21.333 12.8 8.533-8.533 8.533-12.8 8.533-21.333v0zM460.8 413.867c-72.533 17.067-145.067-17.067-179.2-76.8s0-132.267 72.533-153.6c72.533-21.333 157.867 12.8 183.467 81.067 29.867 64-8.533 136.533-76.8 149.333v0zM738.133 460.8c-12.8 4.267-21.333 4.267-17.067 21.333 17.067 34.133 17.067 64 0 85.333-25.6 38.4-106.667 38.4-196.267 0 0 0-25.6-12.8-21.333 12.8 17.067 46.933 12.8 85.333-12.8 106.667-46.933 46.933-179.2 0-285.867-115.2-81.067-81.067-132.267-166.4-132.267-243.2 0-145.067 183.467-234.667 366.933-234.667 238.933 0 396.8 136.533 396.8 243.2 4.267 72.533-51.2 110.933-98.133 123.733v0zM802.133 648.533c-25.6 34.133-72.533 42.667-106.667 34.133-17.067-4.267-25.6-21.333-21.333-34.133 4.267-17.067 17.067-25.6 34.133-21.333 25.6 4.267 59.733-12.8 64-42.667 0-12.8 0-21.333 0-25.6-4.267-17.067 4.267-34.133 17.067-38.4 17.067-4.267 34.133 4.267 38.4 17.067v0c12.8 34.133 0 81.067-25.6 110.933v0zM891.733 725.333c-55.467 59.733-140.8 85.333-221.867 72.533-17.067-4.267-25.6-21.333-25.6-38.4 4.267-17.067 21.333-25.6 38.4-25.6 55.467 12.8 115.2-4.267 157.867-46.933 38.4-42.667 55.467-102.4 34.133-162.133-4.267-17.067 4.267-38.4 21.333-42.667s38.4 4.267 42.667 21.333v0 0c25.6 68.267 8.533 162.133-46.933 221.867v0z" />
<glyph unicode="&#xe934;" glyph-name="arrow-first" horiz-adv-x="1507" d="M1506.633 500.349h-620.529l390.703 388.15-71.501 71.501-464.758-459.651h-365.167l390.703 388.15-71.501 71.501-464.758-459.651h-229.825v-102.145h229.825l464.758-462.204 71.501 74.055-390.703 388.15h365.167l464.758-462.204 71.501 74.055-390.703 388.15h620.529z" />
<glyph unicode="&#xe936;" glyph-name="arrow-last" horiz-adv-x="1507" d="M0.367 500.349h620.529l-390.703 388.15 71.501 71.501 464.758-459.651h365.167l-390.703 388.15 71.501 71.501 464.758-459.651h229.825v-102.145h-229.825l-464.758-462.204-71.501 74.055 390.703 388.15h-365.167l-464.758-462.204-71.501 74.055 390.703 388.15h-620.529z" />
<glyph unicode="&#xe954;" glyph-name="hamburger-update" d="M72.533 477.867v-59.733h874.667v59.733h-874.667zM302.933 110.933h430.933v59.733h-430.933v-59.733zM733.867 785.067h-430.933v-59.733h430.933v59.733z" />
<glyph unicode="&#xf06a;" glyph-name="warning-2" horiz-adv-x="878" d="M438.857 877.714q119.429 0 220.286-58.857t159.714-159.714 58.857-220.286-58.857-220.286-159.714-159.714-220.286-58.857-220.286 58.857-159.714 159.714-58.857 220.286 58.857 220.286 159.714 159.714 220.286 58.857zM512 165.143v108.571q0 8-5.143 13.429t-12.571 5.429h-109.714q-7.429 0-13.143-5.714t-5.714-13.143v-108.571q0-7.429 5.714-13.143t13.143-5.714h109.714q7.429 0 12.571 5.429t5.143 13.429zM510.857 361.714l10.286 354.857q0 6.857-5.714 10.286-5.714 4.571-13.714 4.571h-125.714q-8 0-13.714-4.571-5.714-3.429-5.714-10.286l9.714-354.857q0-5.714 5.714-10t13.714-4.286h105.714q8 0 13.429 4.286t6 10z" />
<glyph unicode="&#xf071;" glyph-name="warning-1" d="M585.143 165.143v108.571q0 8-5.429 13.429t-12.857 5.429h-109.714q-7.429 0-12.857-5.429t-5.429-13.429v-108.571q0-8 5.429-13.429t12.857-5.429h109.714q7.429 0 12.857 5.429t5.429 13.429zM584 378.857l10.286 262.286q0 6.857-5.714 10.857-7.429 6.286-13.714 6.286h-125.714q-6.286 0-13.714-6.286-5.714-4-5.714-12l9.714-261.143q0-5.714 5.714-9.429t13.714-3.714h105.714q8 0 13.429 3.714t6 9.429zM576 912.571l438.857-804.571q20-36-1.143-72-9.714-16.571-26.571-26.286t-36.286-9.714h-877.714q-19.429 0-36.286 9.714t-26.571 26.286q-21.143 36-1.143 72l438.857 804.571q9.714 17.714 26.857 28t37.143 10.286 37.143-10.286 26.857-28z" />
<glyph unicode="&#xf14a;" glyph-name="check-square" horiz-adv-x="878" d="M391.429 208.571l350.857 350.857q10.857 10.857 10.857 25.714t-10.857 25.714l-58.286 58.286q-10.857 10.857-25.714 10.857t-25.714-10.857l-266.857-266.857-120.571 120.571q-10.857 10.857-25.714 10.857t-25.714-10.857l-58.286-58.286q-10.857-10.857-10.857-25.714t10.857-25.714l204.571-204.571q10.857-10.857 25.714-10.857t25.714 10.857zM877.714 713.143v-548.571q0-68-48.286-116.286t-116.286-48.286h-548.571q-68 0-116.286 48.286t-48.286 116.286v548.571q0 68 48.286 116.286t116.286 48.286h548.571q68 0 116.286-48.286t48.286-116.286z" />
</font>
</defs>
</svg>
